<svg width="31" height="28" viewBox="0 0 31 28" fill="none" xmlns="http://www.w3.org/2000/svg">
<path d="M7.20756 0.0875797C5.99093 0.302687 4.52009 0.948006 3.56978 1.67937C1.95972 2.9147 0.76125 4.83222 0.264915 6.94027C-0.00141174 8.0957 -0.0800991 9.84728 0.0893814 10.9658C0.531241 13.8913 2.25026 16.6692 5.5975 19.8651C6.83834 21.0513 7.7039 21.8257 11.2267 24.9048C13.3936 26.8038 14.4831 27.7134 14.7131 27.8241C15.1853 28.0576 15.8147 28.0576 16.2869 27.8302C16.7408 27.6028 23.1932 21.9732 25.3783 19.8897C28.7255 16.7 30.4688 13.8913 30.9106 10.9658C31.0801 9.84728 31.0014 8.0957 30.7351 6.94027C30.2387 4.83222 29.0403 2.9147 27.4302 1.67937C26.4557 0.929569 24.997 0.296539 23.7319 0.0875797C23.0479 -0.0291939 21.6497 -0.0291939 20.9718 0.0875797C19.0954 0.419458 17.334 1.47656 16.0084 3.08064C15.7482 3.39408 15.5242 3.65221 15.5 3.65221C15.4758 3.65221 15.2518 3.39408 14.9916 3.08064C13.666 1.47656 11.9046 0.419458 10.0282 0.0875797C9.37449 -0.0230465 7.86127 -0.0230465 7.20756 0.0875797ZM10.234 2.07885C10.8211 2.25094 11.8017 2.74261 12.2617 3.09293C12.8307 3.52929 13.5933 4.3344 14.0049 4.93056C14.2107 5.23171 14.4529 5.58817 14.5436 5.71723C14.9976 6.3687 16.0024 6.3687 16.4564 5.71723C16.5471 5.58817 16.7893 5.23171 16.9951 4.93056C17.4067 4.3344 18.1693 3.52929 18.7383 3.09293C19.2104 2.73647 20.1849 2.25094 20.7963 2.07271C21.22 1.94979 21.4137 1.93135 22.37 1.93135C23.5624 1.9375 23.9619 2.01125 24.882 2.38615C26.9218 3.22814 28.4471 5.20098 28.9737 7.67778C29.1311 8.42143 29.1371 10.3758 28.9797 11.1195C28.4047 13.836 26.5949 16.2759 22.2974 20.1417C20.0639 22.1514 15.5303 26.054 15.4637 26.0295C15.3729 25.9926 10.125 21.4262 8.69052 20.1294C4.38087 16.2452 2.60132 13.836 2.02025 11.1195C1.86287 10.3758 1.86893 8.42143 2.0263 7.67778C2.63764 4.81993 4.50193 2.73032 7.01992 2.09114C7.69179 1.91291 7.75232 1.91291 8.81157 1.93135C9.58634 1.94364 9.87083 1.97437 10.234 2.07885Z" fill="#448A9A"/>
</svg>
