<svg width="33" height="28" viewBox="0 0 33 28" fill="none" xmlns="http://www.w3.org/2000/svg">
<path d="M5.16684 0.0695066C4.95116 0.18369 4.88138 0.323248 4.88138 0.634081C4.88138 1.14156 4.75451 1.90279 4.58323 2.45467C4.10112 4.0025 2.84511 4.8779 1.10698 4.8779C0.466281 4.8779 0.155448 4.95403 0.0602955 5.13165C-0.041201 5.32195 -0.00948337 5.67719 0.117387 5.83578C0.225227 5.96899 0.30135 5.98802 1.0816 6.02608C2.35665 6.09586 3.07347 6.36863 3.72686 7.02202C4.40561 7.70078 4.77354 8.65865 4.856 9.94004C4.89407 10.5236 4.91944 10.6315 5.04631 10.7584C5.24296 10.955 5.57282 10.955 5.79485 10.7457C5.92806 10.6251 5.95978 10.5363 5.95978 10.2889C5.95978 9.64824 6.08665 8.91873 6.32136 8.24632L6.55607 7.54219L6.4292 7.37091C6.19449 7.05374 5.73141 7.0918 5.54745 7.44069L5.42692 7.65637L5.16049 7.19964C4.79891 6.58431 4.35487 6.11489 3.81567 5.766C3.56827 5.60741 3.36527 5.46785 3.36527 5.44882C3.35893 5.42979 3.49215 5.34733 3.66342 5.25852C4.11381 5.02381 4.93847 4.16743 5.19855 3.65995L5.42058 3.23493L5.6426 3.65995C5.92806 4.19915 6.60047 4.91597 7.09527 5.19508C7.30461 5.31561 7.48223 5.42979 7.48223 5.44882C7.48223 5.46785 7.39976 5.53763 7.29192 5.59472C6.95571 5.79772 6.96206 6.26714 7.30461 6.45744C7.49491 6.56528 7.54566 6.5526 8.43375 6.23542C8.81437 6.10221 9.07445 6.0578 9.75955 6.02608C10.5398 5.98802 10.6159 5.96899 10.7238 5.83578C10.895 5.62644 10.8824 5.23314 10.7047 5.06821C10.6286 4.99843 10.5208 4.94134 10.47 4.94134C10.4129 4.94134 10.0133 4.90962 9.57559 4.8779C8.35763 4.78909 7.67887 4.50364 7.03818 3.82488C6.40383 3.14612 6.05493 2.20728 5.97881 0.976631C5.94075 0.393026 5.92172 0.329591 5.76313 0.171003C5.57917 -0.0129595 5.37617 -0.0510206 5.16684 0.0695066Z" fill="#007F9C"/>
<path d="M20.1883 1.38885C19.9282 1.49669 19.8521 1.76311 19.8521 2.6068C19.8521 4.91585 19.2431 7.15512 18.152 8.8425C16.8579 10.8534 14.9612 12.065 12.335 12.5598C11.8148 12.6613 11.2756 12.6994 10.2226 12.7247C8.85875 12.7565 8.79532 12.7691 8.63673 12.9024C8.49717 13.0229 8.46545 13.1053 8.46545 13.3464C8.46545 13.5875 8.49717 13.6699 8.63039 13.7841C8.78897 13.9237 8.87144 13.93 10.1211 13.9681C10.8506 13.9871 11.7324 14.0505 12.0813 14.1076C13.7242 14.3614 15.0691 14.9069 16.3187 15.8331C16.7564 16.1502 16.9912 16.182 17.2195 15.9473C17.3908 15.776 17.4162 15.5793 17.2893 15.3573C17.0609 14.9386 15.2277 13.9046 14.0604 13.5304L13.5022 13.3527L13.8701 13.2449C17.0165 12.3378 19.3192 9.93358 20.3279 6.49539C20.4103 6.21627 20.4864 6.03231 20.5055 6.08306C20.8607 7.2249 21.0764 7.82119 21.3555 8.39211C22.2563 10.2254 23.6075 11.6336 25.3202 12.5217C25.9609 12.858 27.1472 13.3083 27.3882 13.3147C27.4453 13.321 27.2042 13.4162 26.8427 13.5367C25.9482 13.8349 25.206 14.1964 24.4892 14.6722C22.6369 15.9092 21.3809 17.6917 20.6387 20.134L20.4611 20.7049L20.3405 20.2926C20.1693 19.6899 19.814 18.7574 19.592 18.307C19.2812 17.6854 18.761 16.8671 18.6405 16.7973C18.4565 16.7021 18.2345 16.7338 18.0505 16.8734C17.7904 17.0764 17.8285 17.3111 18.2408 17.9962C18.8625 19.0366 19.2748 20.0769 19.5349 21.2885C19.7379 22.2147 19.795 22.7221 19.8394 23.9338L19.8838 25.0629L20.0614 25.2152C20.3025 25.4181 20.6894 25.4245 20.8924 25.2215C21.0256 25.0883 21.0383 25.0058 21.0764 24.067C21.254 19.9373 22.5798 17.1525 25.1743 15.4588C26.7602 14.4248 28.714 13.949 31.3783 13.949C32.1268 13.949 32.1712 13.9427 32.3171 13.7905C32.5201 13.5875 32.5392 13.1244 32.3488 12.9341C32.1776 12.7628 32.1141 12.7565 30.6995 12.7184C28.2192 12.6486 26.6587 12.2236 25.0538 11.1642C24.375 10.7202 23.3474 9.69887 22.9033 9.0328C21.7932 7.34542 21.235 5.48042 21.1208 3.00645L21.0574 1.6743L20.8671 1.49669C20.6704 1.31907 20.4484 1.28735 20.1883 1.38885Z" fill="#007F9C"/>
<path d="M10.5525 17.2667C10.4002 17.4 10.3812 17.4571 10.3305 18.1675C10.1528 20.7049 8.82704 22.0054 6.42919 22.0054C5.84558 22.0054 5.81386 22.0117 5.63625 22.1893C5.40788 22.4177 5.39519 22.6905 5.59818 22.9252C5.7314 23.0774 5.78215 23.0901 6.62584 23.1409C7.89454 23.2233 8.6177 23.5024 9.27109 24.1685C9.90544 24.8155 10.248 25.729 10.3368 27.0104C10.3939 27.8541 10.4764 28 10.9077 28C11.3391 28 11.4279 27.8414 11.485 27.0358C11.5674 25.7607 11.9227 24.8092 12.557 24.1622C13.2295 23.4834 13.9209 23.217 15.215 23.1535C16.0396 23.1155 16.065 23.1091 16.2109 22.9379C16.4202 22.6905 16.4076 22.424 16.1792 22.1893C16.0016 22.0117 15.9699 22.0054 15.4116 22.0054C14.7392 22.0054 14.016 21.8721 13.5276 21.6501C13.0835 21.4598 12.9059 21.4598 12.7156 21.6565C12.4619 21.9039 12.5253 22.2972 12.8425 22.4684C12.9947 22.5446 12.9947 22.5509 12.4873 22.8871C11.9354 23.2487 11.4152 23.8196 11.1171 24.3905C11.0219 24.5808 10.9267 24.7331 10.9014 24.7331C10.8823 24.7331 10.8062 24.5999 10.7238 24.4349C10.4066 23.7816 9.79126 23.1345 9.08713 22.7285L8.81435 22.5636L9.16325 22.3479C9.84201 21.9419 10.3558 21.4027 10.7238 20.7176L10.9267 20.337L11.0029 20.521C11.1107 20.7811 11.263 20.8889 11.5167 20.8889C11.7895 20.8889 11.9925 20.6986 11.9988 20.4449C12.0051 20.337 11.929 20.0579 11.8339 19.8232C11.5928 19.2332 11.4786 18.6433 11.4786 18.0216C11.4786 17.5205 11.4659 17.4824 11.2947 17.3048C11.0663 17.0764 10.7935 17.0638 10.5525 17.2667Z" fill="#007F9C"/>
</svg>
