<svg width="34" height="33" viewBox="0 0 34 33" fill="none" xmlns="http://www.w3.org/2000/svg">
<path d="M14.9108 0.0136061C12.9594 0.246994 11.3711 0.668387 9.72443 1.40096C8.76495 1.82236 7.41001 2.6068 7.05344 2.94391C6.68391 3.28751 6.89785 3.8645 7.39704 3.8645C7.55911 3.8645 7.80547 3.7478 8.29817 3.43662C10.3014 2.1854 12.376 1.45283 14.8136 1.14164C15.4943 1.05088 17.5364 1.05088 18.2625 1.14164C20.6677 1.43338 22.9173 2.24375 24.927 3.54683C25.6337 4.00712 26.8654 4.96012 26.82 5.01198C26.8006 5.02495 26.4764 5.0055 26.0875 4.9666C25.0307 4.86936 24.9141 4.87584 24.7325 5.06385C24.4278 5.36207 24.5705 5.8807 24.9724 5.97147C25.0567 5.98443 25.8671 6.06223 26.7876 6.13354C27.9416 6.2243 28.4991 6.24375 28.6158 6.19837C28.94 6.07519 28.9465 5.9585 28.7974 4.03954C28.6288 1.98443 28.6223 1.95202 28.1037 1.95202C27.8444 1.95202 27.773 1.97795 27.6693 2.12057C27.5461 2.28265 27.5461 2.33451 27.6239 3.20972C27.6628 3.71539 27.6823 4.14327 27.6628 4.1692C27.6369 4.18865 27.4943 4.0914 27.3452 3.95526C25.7244 2.46417 23.1248 1.09626 20.752 0.486864C19.2998 0.110851 18.5931 0.0265722 16.7909 0.00712299C15.8833 -0.00584269 15.034 0.000639915 14.9108 0.0136061Z" fill="#448A9A"/>
<path d="M3.72771 4.25984C2.04862 4.40895 1.97731 4.43489 1.97731 4.93407C1.97731 5.19339 2.00324 5.26471 2.14587 5.36843C2.30794 5.49161 2.3598 5.49161 3.23501 5.41381C3.74068 5.37492 4.16856 5.35547 4.19449 5.37492C4.21394 5.40085 4.11669 5.54996 3.96758 5.70555C3.22204 6.51592 2.2107 8.05239 1.62723 9.27767C0.492706 11.631 0 13.8287 0 16.4932C0 19.1837 0.486223 21.3555 1.62074 23.7347C1.99676 24.5127 2.72285 25.738 2.96272 25.9843C3.35818 26.3992 3.94165 26.1075 3.89627 25.5175C3.89627 25.4657 3.6953 25.1156 3.46191 24.7396C2.35332 22.9697 1.66613 21.1739 1.29011 19.067C1.11507 18.088 1.04376 15.7866 1.16694 14.8336C1.4846 12.2339 2.28201 10.0427 3.66288 7.97459C4.16207 7.22905 4.98541 6.17232 5.03079 6.2177C5.04376 6.23067 5.02431 6.54185 4.99189 6.91787C4.89465 7.99404 4.90762 8.1237 5.08914 8.30522C5.38736 8.60992 5.90599 8.4673 5.99676 8.06535C6.00972 7.98108 6.08752 7.1707 6.15883 6.2566C6.25607 5.10263 6.27552 4.5451 6.23014 4.4284C6.094 4.07832 5.96434 4.07184 3.72771 4.25984Z" fill="#448A9A"/>
<path d="M15.2674 5.95195C14.2172 6.06864 12.7261 6.50948 11.7666 6.99571C9.67262 8.04595 7.8898 9.88063 6.90439 12.0006C5.69207 14.5938 5.58186 17.5565 6.58672 20.2469C7.12481 21.6991 7.84442 22.8142 8.96597 23.9552C10.4117 25.4268 12.0843 26.3733 14.0875 26.8466C16.8104 27.4884 19.7666 27.0216 22.107 25.563C26.4376 22.866 28.2593 17.537 26.4765 12.7656C25.6596 10.5743 24.1297 8.7137 22.107 7.44951C20.1426 6.22423 17.6597 5.67966 15.2674 5.95195ZM18.4246 7.17075C21.2707 7.76718 23.7407 9.66669 25.0373 12.2534C26.7293 15.6246 26.269 19.631 23.8574 22.5678C22.47 24.2469 20.6094 25.362 18.3663 25.8547C17.4522 26.0557 15.611 26.0557 14.6969 25.8547C12.7456 25.4268 11.1832 24.5776 9.82173 23.2161C8.4603 21.8547 7.61103 20.2923 7.18316 18.3409C6.99515 17.4917 6.98218 15.6635 7.15074 14.8012C7.53972 12.8693 8.44085 11.1707 9.82173 9.79635C11.3776 8.23396 13.3031 7.30041 15.5592 7.01516C16.0973 6.95033 17.8088 7.04109 18.4246 7.17075Z" fill="#448A9A"/>
<path d="M15.6628 9.4785C14.1717 9.84154 13.0761 11.1576 12.9789 12.6941C12.9205 13.7637 13.2382 14.6778 13.9384 15.4104C14.1523 15.6373 14.3144 15.8253 14.3079 15.8318C14.3014 15.8318 14.1264 15.9161 13.9124 16.0069C11.9416 16.9015 10.5607 18.9242 10.3922 21.1868L10.3533 21.7508L10.5542 21.9453L10.7487 22.1462H16.5316H22.3144L22.5089 21.9453L22.7098 21.7508L22.6709 21.1868C22.5024 18.9307 21.1215 16.9015 19.1507 16.0069C18.9367 15.9161 18.7617 15.8318 18.7552 15.8318C18.7487 15.8253 18.9108 15.6373 19.1247 15.4104C20.739 13.7184 20.2852 10.8853 18.2236 9.80264C17.4392 9.39422 16.5056 9.27104 15.6628 9.4785ZM17.5818 10.7297C18.0875 10.9696 18.5478 11.4299 18.7876 11.955C18.9367 12.2727 18.9627 12.4088 18.9627 12.9404C18.9627 13.472 18.9367 13.6082 18.7876 13.9323C18.5413 14.4509 18.0421 14.9566 17.5494 15.1835C17.1993 15.3521 17.0761 15.3715 16.5316 15.3715C15.987 15.3715 15.8638 15.3521 15.5137 15.1835C15.021 14.9566 14.5218 14.4509 14.2755 13.9323C14.1264 13.6082 14.1004 13.472 14.1004 12.9404C14.1004 12.4088 14.1264 12.2727 14.2755 11.955C14.5931 11.2808 15.2609 10.7167 15.9675 10.5352C16.0842 10.5093 16.3954 10.4898 16.6677 10.5028C17.0567 10.5223 17.2576 10.5741 17.5818 10.7297ZM17.7957 16.7005C18.9951 17.0052 20.1944 17.8999 20.8427 18.9631C21.128 19.4364 21.4392 20.2597 21.4975 20.7135L21.5429 21.0441H16.5316H11.5202L11.5656 20.7135C11.6758 19.9031 12.188 18.8659 12.8233 18.1851C14.1069 16.7913 15.9805 16.2338 17.7957 16.7005Z" fill="#448A9A"/>
<path d="M29.3225 6.98919C29.1928 7.13181 29.1474 7.27444 29.1669 7.49486C29.1669 7.54672 29.3678 7.8968 29.6012 8.27282C31.2025 10.8336 31.961 13.4916 31.961 16.5581C31.961 19.6634 31.1118 22.4705 29.4002 25.0378C28.9011 25.7833 28.0777 26.8401 28.0323 26.7947C28.0194 26.7817 28.0388 26.4705 28.0712 26.0945C28.1685 25.0184 28.1555 24.8887 27.974 24.7072C27.6823 24.4154 27.1507 24.5386 27.0729 24.9211C27.0534 25.0184 26.9756 25.8417 26.9043 26.7558C26.8071 27.9422 26.7876 28.4608 26.833 28.584C26.9626 28.9146 27.0729 28.9211 28.9983 28.772C31.0534 28.6034 31.0858 28.5905 31.0858 28.0783C31.0858 27.819 31.0599 27.7477 30.9173 27.644C30.7552 27.5208 30.7033 27.5208 29.8281 27.5986C29.3225 27.6375 28.8946 27.6569 28.8751 27.6375C28.8557 27.618 29.0242 27.3782 29.2576 27.1059C31.0988 24.9535 32.363 22.1918 32.8751 19.2031C33.0502 18.2047 33.115 15.806 32.9983 14.7363C32.739 12.3117 31.961 10.0103 30.7033 7.91625C30.1523 7.00863 29.9967 6.84656 29.692 6.84656C29.5299 6.84656 29.4132 6.89194 29.3225 6.98919Z" fill="#448A9A"/>
<path d="M4.42144 26.8141C4.12322 26.9373 4.11674 27.0734 4.26585 28.9729C4.43441 31.028 4.44089 31.0605 4.95953 31.0605C5.21885 31.0605 5.29016 31.0345 5.39389 30.8919C5.51058 30.7363 5.51707 30.678 5.44575 29.8028C5.40037 29.2971 5.38741 28.8627 5.40685 28.8433C5.4263 28.8238 5.56893 28.9211 5.71804 29.0572C5.87363 29.1998 6.23019 29.4916 6.51544 29.7055C8.74559 31.3846 11.1573 32.4089 14.0357 32.8887C14.6127 32.9859 15.0924 33.0054 16.5965 32.9989C18.295 32.9989 18.5219 32.9859 19.3842 32.8238C20.9595 32.5386 22.3209 32.1042 23.7602 31.417C24.5381 31.041 25.7634 30.3149 26.0098 30.075C26.3793 29.7185 26.1654 29.148 25.6662 29.148C25.5041 29.148 25.2837 29.2452 24.8752 29.5045C22.2756 31.1577 19.5851 31.9357 16.4992 31.9421C13.4004 31.9421 10.5673 31.0864 8.00005 29.3749C7.22857 28.8562 6.19778 28.0524 6.24316 28.0005C6.26261 27.9875 6.58676 28.007 6.97574 28.0459C8.03246 28.1431 8.14916 28.1366 8.33068 27.9486C8.63538 27.6439 8.49275 27.1123 8.08433 27.041C7.89632 27.0086 4.68076 26.7428 4.60297 26.7558C4.58352 26.7558 4.50572 26.7817 4.42144 26.8141Z" fill="#448A9A"/>
</svg>
