<svg width="26" height="26" viewBox="0 0 26 26" fill="none" xmlns="http://www.w3.org/2000/svg">
<path d="M11.3485 0.0686016C9.00239 0.373289 6.85434 1.27212 4.97543 2.72446C4.38129 3.18657 3.37075 4.18188 2.87817 4.79126C1.47661 6.52798 0.547309 8.57954 0.151215 10.8139C0.00902778 11.6061 -0.0468316 13.5104 0.0445747 14.3788C0.460981 18.2686 2.60903 21.7674 5.91489 23.9256C7.5602 24.9971 9.41372 25.6725 11.4247 25.9213C12.1965 26.0178 13.8215 26.0127 14.6239 25.9163C20.5145 25.185 25.1914 20.5081 25.9227 14.6174C26.0243 13.7948 26.0243 12.1901 25.9227 11.3674C25.4555 7.5893 23.3379 4.2022 20.1336 2.09477C18.4629 0.997898 16.6043 0.317429 14.6239 0.0686016C13.852 -0.0228043 12.0797 -0.0228043 11.3485 0.0686016ZM16.3809 5.62915C17.1325 5.69516 17.6454 5.83227 18.2293 6.12173C18.6356 6.31977 18.7829 6.43149 19.1739 6.81743C19.5598 7.20844 19.6715 7.35571 19.8696 7.76196C20.3875 8.80806 20.4282 9.2397 20.3977 13.3987C20.3825 16.4202 20.3723 16.6538 20.2758 17.0854C19.9051 18.7104 18.8743 19.8124 17.3508 20.1983C16.65 20.3811 15.9797 20.4116 12.9989 20.4116C9.25629 20.4116 8.77895 20.3608 7.7684 19.8631C7.36215 19.6651 7.21489 19.5534 6.82387 19.1674C6.43793 18.7764 6.32622 18.6291 6.12817 18.2229C5.63051 17.2124 5.58481 16.7706 5.58481 12.9924C5.58481 9.21431 5.63051 8.77251 6.12817 7.76196C6.32622 7.35571 6.43286 7.20844 6.82387 6.82251C7.45864 6.19282 8.02739 5.89829 9.00239 5.70024C9.70825 5.55805 14.9641 5.50727 16.3809 5.62915Z" fill="#FAFAFA"/>
<path d="M9.87584 6.89869C8.8653 6.96978 8.22037 7.21353 7.71256 7.72135C7.20475 8.23424 6.98639 8.83346 6.90514 9.93541C6.8442 10.7733 6.8442 15.2116 6.90514 16.0495C6.98639 17.1463 7.20983 17.7557 7.72272 18.2686C8.261 18.812 8.83483 19.0049 10.1044 19.0913C11.186 19.1624 16.1829 19.1217 16.6501 19.0405C18.0465 18.7866 18.793 18.0401 19.0469 16.6436C19.1282 16.1764 19.1688 11.1795 19.0977 10.0979C19.0114 8.81314 18.8235 8.25963 18.2751 7.71627C17.752 7.19322 17.1579 6.97486 16.0255 6.89869C15.2434 6.84283 10.6833 6.84791 9.87584 6.89869ZM17.3712 8.24947C17.6962 8.41705 17.9145 8.86392 17.8231 9.17877C17.6251 9.87955 16.8786 10.0979 16.386 9.60533C15.7005 8.91978 16.5079 7.80767 17.3712 8.24947ZM14.0399 9.33619C14.7051 9.54439 15.1622 9.82369 15.6649 10.3264C16.1727 10.8342 16.4469 11.2862 16.6602 11.9768C16.8329 12.5253 16.8329 13.4596 16.6602 14.0081C16.4469 14.6987 16.1727 15.1506 15.6649 15.6585C15.1571 16.1663 14.7051 16.4405 14.0145 16.6538C13.4661 16.8264 12.5317 16.8264 11.9833 16.6538C11.2926 16.4405 10.8407 16.1663 10.3329 15.6585C9.82506 15.1506 9.55084 14.6987 9.33756 14.0081C9.1649 13.4596 9.1649 12.5253 9.33756 11.9768C9.7235 10.7225 10.663 9.75767 11.8715 9.36158C12.3083 9.21939 12.5876 9.18892 13.1512 9.20924C13.5067 9.21939 13.8012 9.2651 14.0399 9.33619Z" fill="#FAFAFA"/>
<path d="M12.2016 10.6057C11.5364 10.8241 10.9219 11.403 10.6579 12.0631C10.5563 12.317 10.536 12.444 10.536 12.9924C10.536 13.5358 10.5563 13.6678 10.6528 13.9167C10.9016 14.5311 11.4602 15.0897 12.0747 15.3385C12.3235 15.435 12.4555 15.4553 12.9989 15.4553C13.5423 15.4553 13.6743 15.435 13.9231 15.3385C14.5376 15.0897 15.0962 14.5311 15.345 13.9167C15.4415 13.6678 15.4618 13.5358 15.4618 12.9924C15.4618 12.4491 15.4415 12.317 15.345 12.0682C15.0962 11.4538 14.5325 10.8901 13.9231 10.6514C13.5016 10.4838 12.6434 10.4635 12.2016 10.6057Z" fill="#FAFAFA"/>
</svg>
