<svg width="26" height="26" viewBox="0 0 26 26" fill="none" xmlns="http://www.w3.org/2000/svg">
<path d="M11.1973 0.0365734C8.36367 0.376808 5.7332 1.65649 3.70703 3.68774C1.68594 5.70376 0.446875 8.22251 0.0761719 11.0663C-0.0253906 11.8584 -0.0253906 13.4936 0.0761719 14.2858C0.258984 15.662 0.644922 16.962 1.23906 18.1858C1.90937 19.567 2.64062 20.603 3.70703 21.6643C5.34727 23.3096 7.40391 24.4776 9.60781 25.0159C10.791 25.3053 11.177 25.3459 12.7207 25.3459C13.9801 25.3459 14.2187 25.3307 14.7926 25.2292C16.1637 24.9803 17.3367 24.5893 18.5098 23.9799C19.7691 23.3299 20.6984 22.6545 21.6836 21.6643C22.7195 20.6334 23.3848 19.7092 24.0754 18.3381C24.7254 17.0483 25.1215 15.7483 25.3145 14.2858C25.416 13.4936 25.416 11.8584 25.3145 11.0663C24.9437 8.24282 23.6895 5.6936 21.6836 3.68774C20.6223 2.62134 19.5914 1.89009 18.2051 1.21978C17.0727 0.671339 16.118 0.366652 14.7926 0.127979C14.3102 0.0416508 13.9445 0.0162601 12.8984 0.00102615C12.1875 -0.00405121 11.4207 0.0111828 11.1973 0.0365734ZM14.1172 4.67798C15.148 4.8354 16.1434 5.18579 16.9863 5.6936C17.677 6.10493 18.068 6.4147 18.6113 6.96313C19.6828 8.04985 20.3937 9.3854 20.7238 10.9495C20.8762 11.6553 20.8863 13.062 20.7543 13.7932C20.1652 16.9417 17.677 19.4909 14.5488 20.1459C12.8527 20.4963 11.2887 20.3389 9.67383 19.6534C9.36406 19.5264 9.05937 19.4096 8.98828 19.3995C8.91719 19.3842 7.95234 19.6686 6.72852 20.0545C5.55547 20.4252 4.59062 20.7147 4.58047 20.6995C4.57539 20.6842 4.89023 19.7499 5.28125 18.6225L5.99219 16.576L5.71797 16.0124C5.05781 14.6667 4.78867 13.3616 4.88008 11.9397C5.07305 8.99946 6.98242 6.369 9.76016 5.21118C10.3289 4.97251 11.0246 4.77954 11.6645 4.68306C12.2687 4.58657 13.518 4.58657 14.1172 4.67798Z" fill="#FAFAFA"/>
<path d="M12.0859 5.76972C9.47577 6.09472 7.29725 7.81112 6.42889 10.2283C5.94647 11.5689 5.94647 13.2752 6.42889 14.6158C6.59647 15.083 6.891 15.667 7.13475 16.0275C7.24139 16.1799 7.32772 16.3475 7.32264 16.3982C7.32264 16.449 7.14491 17.0178 6.93163 17.6576C6.71327 18.3025 6.55077 18.8357 6.56093 18.8459C6.57108 18.856 7.16522 18.6834 7.88124 18.46L9.18124 18.0588L9.53163 18.2568C10.6285 18.8764 11.8422 19.1607 13.1777 19.11C14.1781 19.0693 14.9398 18.8916 15.8437 18.4803C17.1539 17.8861 18.4387 16.6115 19.0683 15.2861C20.9422 11.3404 18.4996 6.6787 14.1223 5.85097C13.5941 5.7494 12.5785 5.70878 12.0859 5.76972ZM10.5879 9.0248C10.6742 9.1162 11.4258 10.8834 11.4258 11.0002C11.4258 11.0459 11.2531 11.2846 11.0449 11.5232C10.8164 11.7822 10.6641 12.0006 10.6641 12.0717C10.6641 12.2443 11.2023 13.0111 11.6137 13.4174C12.0453 13.8439 12.6648 14.2705 13.2183 14.5295C13.8176 14.8088 13.8226 14.8037 14.3965 14.0318C14.5387 13.8439 14.6961 13.6814 14.757 13.6662C14.8738 13.6307 16.6207 14.3975 16.7781 14.5549C16.8695 14.6412 16.8695 14.6615 16.7883 15.017C16.6867 15.474 16.5293 15.7482 16.1992 16.0428C15.8133 16.3932 15.473 16.5049 14.8535 16.5049C14.4168 16.5049 14.2797 16.4846 13.8633 16.3373C12.1621 15.7584 10.7707 14.7225 9.63827 13.2041C8.46014 11.6146 8.32811 10.2639 9.25741 9.2787C9.5621 8.95878 9.67889 8.908 10.1207 8.93339C10.3746 8.94355 10.5422 8.97909 10.5879 9.0248Z" fill="#FAFAFA"/>
</svg>
